# xmcd
#
# Track frame offsets:
#	150
#	16652
#	31691
#	52373
#	71514
#	95616
#	118817
#	146833
#	166822
#	185670
#
# Disc length: 2761 seconds
#
# Revision: 2
# Processed by: cddbd v1.5.2PL0 Copyright (c) Steve Scherf et al.
# Submitted via: audiograbber 1.83.01
#
DISCID=8a0ac70a
DTITLE=Alpha Waves - Who Is We? Who Are They? 
DYEAR=2012
DGENRE=Rock
TTITLE0=Plastic People
TTITLE1=Second Wind
TTITLE2=Vortex
TTITLE3=Cursed By Awareness
TTITLE4=Bloodstained
TTITLE5=Followers
TTITLE6=Predation
TTITLE7=In The Corner
TTITLE8=Changing Weather
TTITLE9=Raise The Stakes
EXTD=
EXTT0=
EXTT1=
EXTT2=
EXTT3=
EXTT4=
EXTT5=
EXTT6=
EXTT7=
EXTT8=
EXTT9=
PLAYORDER=
